G04 EAGLE Gerber RS-274X export*
G75*
%MOMM*%
%FSLAX34Y34*%
%LPD*%
%INBottom Copper*%
%IPPOS*%
%AMOC8*
5,1,8,0,0,1.08239X$1,22.5*%
G01*
%ADD10P,1.429621X8X22.500000*%
%ADD11P,1.429621X8X202.500000*%
%ADD12P,1.732040X8X292.500000*%
%ADD13C,1.600200*%
%ADD14P,1.429621X8X292.500000*%
%ADD15P,3.409096X8X22.500000*%
%ADD16P,1.732040X8X202.500000*%
%ADD17C,1.320800*%
%ADD18P,1.429621X8X112.500000*%


D10*
X241300Y749300D03*
X292100Y749300D03*
X330200Y749300D03*
X381000Y749300D03*
D11*
X482600Y749300D03*
X431800Y749300D03*
D10*
X393700Y939800D03*
X444500Y939800D03*
D12*
X127000Y863600D03*
D13*
X127000Y889000D03*
D12*
X127000Y800100D03*
D13*
X127000Y825500D03*
D14*
X673100Y736600D03*
X673100Y685800D03*
D11*
X571500Y749300D03*
X520700Y749300D03*
D15*
X63500Y876300D03*
X63500Y927100D03*
X63500Y762000D03*
X63500Y812800D03*
D16*
X292100Y889000D03*
X266700Y889000D03*
X215900Y812800D03*
X241300Y812800D03*
X241300Y889000D03*
X215900Y889000D03*
X266700Y812800D03*
X292100Y812800D03*
D17*
X457200Y889000D03*
X431800Y889000D03*
X431800Y812800D03*
X457200Y812800D03*
X406400Y889000D03*
X381000Y889000D03*
X406400Y812800D03*
X381000Y812800D03*
X584200Y889000D03*
X558800Y889000D03*
X558800Y812800D03*
X584200Y812800D03*
X533400Y889000D03*
X508000Y889000D03*
X533400Y812800D03*
X508000Y812800D03*
D10*
X292100Y685800D03*
X368300Y685800D03*
D11*
X584200Y647700D03*
X508000Y647700D03*
D14*
X622300Y749300D03*
X622300Y673100D03*
X736600Y787400D03*
X736600Y711200D03*
D18*
X63500Y635000D03*
X63500Y711200D03*
X63500Y533400D03*
X63500Y609600D03*
D11*
X482600Y647700D03*
X406400Y647700D03*
X482600Y685800D03*
X406400Y685800D03*
X584200Y685800D03*
X508000Y685800D03*
D14*
X673100Y850900D03*
X673100Y774700D03*
D11*
X558800Y939800D03*
X482600Y939800D03*
X660400Y939800D03*
X584200Y939800D03*
D14*
X736600Y889000D03*
X736600Y812800D03*
D18*
X330200Y812800D03*
X330200Y889000D03*
D11*
X368300Y647700D03*
X292100Y647700D03*
M02*
