M48
;GenerationSoftware,Autodesk,EAGLE,9.3.1*%
;CreationDate,2019-03-22T20:44:08Z*%
FMAT,2
ICI,OFF
METRIC,TZ,000.000
T2C0.813
T1C1.118
%
G90
M71
T1
X6350Y76200
X6350Y87630
X6350Y92710
X6350Y81280
T2
X29210Y74930
X33020Y74930
X38100Y74930
X48260Y74930
X43180Y74930
X39370Y93980
X44450Y93980
X12700Y86360
X24130Y74930
X12700Y80010
X12700Y82550
X67310Y73660
X67310Y68580
X57150Y74930
X52070Y74930
X12700Y88900
X29210Y88900
X26670Y88900
X21590Y81280
X24130Y81280
X24130Y88900
X21590Y88900
X26670Y81280
X29210Y81280
X45720Y88900
X43180Y88900
X43180Y81280
X45720Y81280
X40640Y88900
X38100Y88900
X40640Y81280
X38100Y81280
X58420Y88900
X55880Y88900
X55880Y81280
X58420Y81280
X53340Y88900
X50800Y88900
X53340Y81280
X50800Y81280
X29210Y68580
X36830Y68580
X58420Y64770
X50800Y64770
X62230Y74930
X62230Y67310
X73660Y78740
X73660Y71120
X6350Y63500
X6350Y71120
X6350Y53340
X6350Y60960
X48260Y64770
X40640Y64770
X48260Y68580
X40640Y68580
X58420Y68580
X50800Y68580
X67310Y85090
X67310Y77470
X55880Y93980
X48260Y93980
X66040Y93980
X58420Y93980
X73660Y88900
X73660Y81280
X33020Y81280
X33020Y88900
X36830Y64770
X29210Y64770
M30